<svg width="38" height="40" viewBox="0 0 38 40" xmlns="http://www.w3.org/2000/svg" xmlns:xlink="http://www.w3.org/1999/xlink">
    <defs>
        <path id="07x9ueztta" d="M0 0h37.895v40H0z"/>
    </defs>
    <g fill="none" fill-rule="evenodd">
        <g>
            <mask id="s0ly4p6rcb" fill="#fff">
                <use xlink:href="#07x9ueztta"/>
            </mask>
            <path d="M3.994 35.616V28.479c0-.079.035-.143.105-.194a.465.465 0 0 1 .275-.075l1.06-.021h1.247c.106 0 .209-.004.309 0h.494c.79 0 1.397.107 1.82.322.424.215.705.475.847.78.14.304.222.65.243 1.037.007.064.01.154.01.268 0 .437-.079.794-.237 1.07-.08.14-.232.27-.368.392.136.122.287.253.368.392.158.276.238.633.238 1.07 0 .114-.004.204-.011.268a2.81 2.81 0 0 1-.243 1.038c-.142.304-.423.564-.847.779-.423.215-1.03.322-1.82.322H4.438a.58.58 0 0 1-.21-.04.388.388 0 0 1-.129-.056.23.23 0 0 1-.092-.141.28.28 0 0 1-.008-.03c0-.008-.005-.014-.005-.023v-.021zm7.712-7.341h1.386c.14 0 .25.029.328.086a.279.279 0 0 1 .116.236l.042 3.504c.007.466.132.833.376 1.102.243.268.573.403.989.403.818 0 1.227-.473 1.227-1.42l.021-3.567c0-.093.044-.174.132-.242a.496.496 0 0 1 .313-.102h1.407c.134 0 .238.03.312.091a.284.284 0 0 1 .1.253v1.59a185.653 185.653 0 0 0 .01 2.236c.008.58-.09 1.13-.29 1.65-.201.52-.564.953-1.09 1.3-.525.348-1.232.522-2.12.522-.812 0-1.487-.169-2.027-.506a3.109 3.109 0 0 1-1.195-1.316 4.034 4.034 0 0 1-.386-1.758l-.011-3.74c0-.215.12-.322.36-.322zm7.701.462a.48.48 0 0 1 .133-.344.416.416 0 0 1 .312-.14h1.428c.12 0 .224.047.312.14a.482.482 0 0 1 .132.344v4.815h2.91c.133 0 .248.043.343.129a.417.417 0 0 1 .143.322v1.355a.406.406 0 0 1-.143.311.495.495 0 0 1-.344.13h-4.506l-.275-.011a.423.423 0 0 1-.312-.135.462.462 0 0 1-.133-.338v-6.578zm6.729 6.46 2.401-3.31-2.285-2.989a.383.383 0 0 1-.063-.215c0-.093.031-.179.095-.258.063-.079.137-.118.222-.118H28.6c.098 0 .186.047.264.14l1.058 1.483 1.08-1.483a.31.31 0 0 1 .264-.14h2.073a.31.31 0 0 1 .238.113c.067.075.1.163.1.263a.318.318 0 0 1-.073.215l-2.38 2.977 2.507 3.321a.367.367 0 0 1 .063.205.383.383 0 0 1-.095.252.305.305 0 0 1-.243.113h-2.264a.288.288 0 0 1-.164-.054.504.504 0 0 1-.133-.129l-.973-1.397-.952 1.397c-.106.122-.194.183-.264.183H26.41a.326.326 0 0 1-.249-.108.35.35 0 0 1-.1-.247c0-.086.024-.157.074-.215zM.614 40h28.668c5.537 0 8.613-3.125 8.613-8.75v-4.188c0-3.625-1.6-5.874-4-7.374 2.4-1.376 4-3.438 4-6.75V8.75c0-5.625-3.076-8.75-8.613-8.75H.614C.246 0 0 .25 0 .625v38.75c0 .375.246.625.614.625z" fill="#E41941" mask="url(#s0ly4p6rcb)"/>
        </g>
        <path d="M6.31 34.304h1.006c.31-.014.542-.093.698-.236.155-.143.232-.337.232-.58a.705.705 0 0 0-.253-.575c-.17-.14-.459-.214-.868-.22H6.31c-.105 0-.158.024-.158.074v1.44c0 .03.014.053.042.07a.214.214 0 0 0 .116.027M6.31 31.424h1.006c.31-.014.542-.093.698-.237.155-.143.232-.336.232-.58a.705.705 0 0 0-.253-.575c-.17-.14-.459-.213-.868-.22H6.31c-.105 0-.158.025-.158.075v1.44c0 .029.014.052.042.07a.216.216 0 0 0 .116.027" fill="#E41941"/>
    </g>
</svg>
