<svg width="28" height="28" viewBox="0 0 28 28" xmlns="http://www.w3.org/2000/svg">
    <g fill="none" fill-rule="evenodd">
        <path d="m13.278 5.896 5.245-3.207c.34-.208 1.058-.22 1.405-.024L26.49 6.38a.428.428 0 0 1 .095.07.45.45 0 0 1-.089.076l-6.339 4.317-6.88-4.946zm3.635 14.46-.002-6.486a.377.377 0 0 0-.145-.414L9.48 8.216l3.088-1.887 7.21 5.185.002 6.89-2.867 1.951zm-7.472-2.218c-.3.205-.918.197-1.213-.015l-6.704-4.821c-.085-.06-.11-.11-.113-.114.003-.012.033-.059.122-.113L8.77 8.65l7.103 5.108-6.432 4.38zm17.375-4.526-6.269 4.268v-1.467l6.702-4.567a.383.383 0 1 0-.433-.632l-6.27 4.271v-1.148l6.702-4.562a.384.384 0 0 0-.433-.633l-6.27 4.267v-1.904l6.383-4.346c.292-.199.452-.47.44-.743-.01-.273-.193-.53-.5-.703L20.307 2c-.284-.16-.658-.249-1.053-.249-.43 0-.832.101-1.133.285l-9.535 5.83L1.13 12.42c-.304.186-.477.446-.488.734-.01.288.143.561.432.769l6.704 4.82c.28.202.67.318 1.07.318.386 0 .75-.103 1.025-.29l6.269-4.27v1.9l-6.382 4.353a1.63 1.63 0 0 1-.912.258c-.361 0-.7-.1-.953-.282l-6.704-4.82a.383.383 0 1 0-.45.622l6.706 4.82c.382.275.88.426 1.402.426.496 0 .974-.139 1.345-.391l5.948-4.058v1.16l-6.382 4.338a1.63 1.63 0 0 1-.912.258c-.361 0-.7-.1-.953-.282l-6.704-4.821a.384.384 0 0 0-.449.622l6.704 4.82c.383.275.881.427 1.403.427.496 0 .973-.14 1.344-.391l5.95-4.044v1.462l-6.383 4.347a1.63 1.63 0 0 1-.912.258c-.361 0-.7-.1-.953-.282L1.192 20.38a.385.385 0 0 0-.45.622l6.705 4.82c.383.276.881.427 1.403.427.496 0 .973-.14 1.344-.391L27.25 14.246a.384.384 0 0 0-.433-.633z" fill="#000"/>
        <path d="m13.278 5.896 5.245-3.207c.34-.208 1.058-.22 1.405-.024L26.49 6.38a.428.428 0 0 1 .095.07.45.45 0 0 1-.089.076l-6.339 4.317-6.88-4.946zm3.635 14.46-.002-6.486a.377.377 0 0 0-.145-.414L9.48 8.216l3.088-1.887 7.21 5.185.002 6.89-2.867 1.951zm-7.472-2.218c-.3.205-.918.197-1.213-.015l-6.704-4.821c-.085-.06-.11-.11-.113-.114.003-.012.033-.059.122-.113L8.77 8.65l7.103 5.108-6.432 4.38zm17.375-4.526-6.269 4.268v-1.467l6.702-4.567a.383.383 0 1 0-.433-.632l-6.27 4.271v-1.148l6.702-4.562a.384.384 0 0 0-.433-.633l-6.27 4.267v-1.904l6.383-4.346c.292-.199.452-.47.44-.743-.01-.273-.193-.53-.5-.703L20.307 2c-.284-.16-.658-.249-1.053-.249-.43 0-.832.101-1.133.285l-9.535 5.83L1.13 12.42c-.304.186-.477.446-.488.734-.01.288.143.561.432.769l6.704 4.82c.28.202.67.318 1.07.318.386 0 .75-.103 1.025-.29l6.269-4.27v1.9l-6.382 4.353a1.63 1.63 0 0 1-.912.258c-.361 0-.7-.1-.953-.282l-6.704-4.82a.383.383 0 1 0-.45.622l6.706 4.82c.382.275.88.426 1.402.426.496 0 .974-.139 1.345-.391l5.948-4.058v1.16l-6.382 4.338a1.63 1.63 0 0 1-.912.258c-.361 0-.7-.1-.953-.282l-6.704-4.821a.384.384 0 0 0-.449.622l6.704 4.82c.383.275.881.427 1.403.427.496 0 .973-.14 1.344-.391l5.95-4.044v1.462l-6.383 4.347a1.63 1.63 0 0 1-.912.258c-.361 0-.7-.1-.953-.282L1.192 20.38a.385.385 0 0 0-.45.622l6.705 4.82c.383.276.881.427 1.403.427.496 0 .973-.14 1.344-.391L27.25 14.246a.384.384 0 0 0-.433-.633h0z" stroke="#000" stroke-width=".5" stroke-linecap="round" stroke-linejoin="round"/>
    </g>
</svg>
