<svg width="28" height="34" viewBox="0 0 28 34" xmlns="http://www.w3.org/2000/svg">
    <path d="M13.645.554 19.32 8.52c.33.464.923.662 1.466.49l9.328-2.936c1.216-.382 2.21 1.014 1.452 2.037l-5.82 7.86a1.315 1.315 0 0 0-.015 1.545l5.676 7.964c.74 1.038-.281 2.415-1.489 2.01l-9.273-3.107a1.315 1.315 0 0 0-1.475.465l-5.82 7.859c-.758 1.023-2.384.479-2.372-.795l.09-9.78a1.315 1.315 0 0 0-.898-1.259L.897 17.765C-.31 17.36-.295 15.646.92 15.264l9.329-2.937c.543-.17.914-.673.92-1.242l.09-9.78c.011-1.273 1.646-1.788 2.386-.75" fill="#75C2D7" fill-rule="evenodd"/>
</svg>
